# xmcd
#
# Track frame offsets: 
#        150
#        14262
#        36066
#        57926
#        75988
#        89556
#        109035
#        128463
#        142219
#        150438
#        169285
#        193740
#        210963
#        229514
#        247253
#        266042
#
# Disc length: 3656 seconds
#
# Revision: 0
# Processed by: cddbd v1.5.2PL0 Copyright (c) Steve Scherf et al.
# Submitted via: ExactAudioCopy v0.99pb3
#
DISCID=d20e4610
DTITLE=Mr. B - B at Home
DYEAR=2004
DGENRE=Jazz
TTITLE0=Festina Tarde
TTITLE1=High Heeled Sneakers
TTITLE2=Viper's Trail
TTITLE3=Honeydrippers, The
TTITLE4=Sunnyside of the Street
TTITLE5=Free Way
TTITLE6=It Don't Mean a Thing
TTITLE7=Cherry
TTITLE8=Dudlow Joe
TTITLE9=C.C. Rider
TTITLE10=La Piragua
TTITLE11=B at Home
TTITLE12=B's Mix
TTITLE13=Amazing Grace
TTITLE14=Vicksburg Blues
TTITLE15=Duffy's Prayer
EXTD=
EXTT0=
EXTT1=
EXTT2=
EXTT3=
EXTT4=
EXTT5=
EXTT6=
EXTT7=
EXTT8=
EXTT9=
EXTT10=
EXTT11=
EXTT12=
EXTT13=
EXTT14=
EXTT15=
PLAYORDER=
